<?xml version="1.0" encoding="UTF-8"?><svg id="Layer_2" xmlns="http://www.w3.org/2000/svg" viewBox="0 0 125.82 181.96"><defs><style>.cls-1{fill:#fff;}.cls-2{fill:#fdbf12;}.cls-3{fill:#9e7100;}.cls-4{fill:#363135;}.cls-5{opacity:.51;}</style></defs><g id="Layer_1-2"><g class="cls-5"><path class="cls-2" d="M124.77,144.72c-4.99,20.18-19.13,33.07-34.73,35.57-15.6,2.5-44.1,1.46-44.1,1.46,0,0-12.27-.21-21.01-10.2-8.73-9.98-11.02-17.89-11.02-30.16v-63.02l-6.24-4.79-4.16-9.36s0-15.39,10.81-19.97c10.82-4.57,8.95-3.74,9.16-8.11,.2-4.37,.4-33.55,.4-33.55,0,0,22.62-5.22,22.19,24.35-.44,29.58,0,116.58,0,116.58,0,0-1.74,6.09,6.09,6.09s38.28,4.35,40.45-9.14c2.18-13.48-6.09-14.35-6.09-14.35,0,0-11.64-2.22-12.61-13.48-.72-8.27,1.15-11.6,5.94-15.55,4.78-3.95,8.32-3.95,8.32-10.19,0-3.9-1.46-7.25-6.2-9.12,.28-1.09,.33-1.99,0-2.29-.21-.18-.52-.17-.71,.04-.15,.17-.16,.43-.04,.61,.03,.2-.04,.68-.19,1.31-2.08-.68-4.72-1.1-8.03-1.2l.17-.31c.14-.24,.06-.54-.18-.68-.24-.13-.55-.05-.69,.19l-.44,.77c-.77,0-1.57,.01-2.4,.03-14.98,.45-16.23-15.77-16.23-15.77,0,0,.83-16.43,16.02-16.23,15.18,.21,40.97,5.62,48.05,26.63,7.07,21.01-2.08,36.19-2.08,36.19,0,0,14.56,17.47,9.56,37.65Z"/><path class="cls-4" d="M24.16,16.7h0c-1.3,0-2.35-1.05-2.35-2.35V2.35c0-1.3,1.05-2.35,2.35-2.35h3.32c1.3,0,2.35,1.05,2.35,2.35V11.04c0,3.13-2.54,5.67-5.67,5.67Z"/><circle class="cls-1" cx="24.17" cy="52.16" r="3.43"/><circle class="cls-4" cx="24.76" cy="51.44" r="1.5"/><path class="cls-3" d="M28.34,67.86l-23.19-5.47c-2.84,0-5.15,1.76-5.15,4.6v11.63c0,2.84,2.31,5.15,5.15,5.15l23.19-5.47c2.88-.88,5.15-2.31,5.15-5.15v-.14c0-2.84-2.15-4.19-5.15-5.15Z"/><path class="cls-2" d="M47.81,80.67l.42-1.29c1.05-5.44,4.91-5.44,4.91-5.44,2-.03,2.13,.84,2.13,1.95v11.31c0,1.12-.9,2.02-2.02,2.02h-11.31c-1.12,0-2.02-.9-2.02-2.02l.55-6.2c0-1.12,7.11-.35,7.34-.32Z"/><path class="cls-2" d="M47.81,97.09l.42-1.29c1.05-5.44,4.91-5.44,4.91-5.44,2-.03,2.13,.84,2.13,1.95v11.31c0,1.12-.9,2.02-2.02,2.02h-11.31c-1.12,0-2.02-.9-2.02-2.02l.55-6.2c0-1.12,7.11-.35,7.34-.32Z"/><path class="cls-2" d="M67.54,77.65l.69,1.17c.32,.42,.59,.83,.8,1.23l-4.22,3.73c-.25,.28-.43,.6-.54,.95l-6.56-5.88c-.83-.75-.9-2.02-.16-2.85l7.55-8.42c.75-.83,2.02-.9,2.85-.16l4.25,4.55c.83,.75-4.48,5.53-4.66,5.68Z"/><path class="cls-2" d="M69.48,80.98c1.27,3.18-.48,5.14-.48,5.14-1.32,1.51-2.04,1.02-2.87,.28l-.96-.86c-.03-.41,.11-.79,.34-1.05l3.97-3.51Z"/><path class="cls-2" d="M78.86,82.37c-.92,1.28-2.17,2.25-3.73,2.87-.15,.06-.21,.09-.29,.16l-.31,.27,.93,1.58c3.04,4.01,.88,6.55,.79,6.66-.46,.52-.84,.8-1.15,.81-.32,.02-.59-.2-1.01-.57l-8.42-7.55c-.3-.27-.48-.65-.5-1.05h0c-.03-.42,.11-.8,.34-1.06l3.97-3.51,.56-.49c.73-.65,1.34-1.41,1.82-2.26l1.3-2.29c.05-.07,.07-.16,.07-.23l7.9,.14c0,.1,.02,.21,.08,.29,.1,.62-.8,4.08-2.35,6.23Z"/><path class="cls-3" d="M48.12,65.87c-.31,0-.63-.05-.94-.16-1.47-.52-2.25-2.13-1.73-3.6,.1-.29,2.56-7.18,9.5-11.8,6.9-4.6,14.63-4.43,14.96-4.41,1.56,.05,2.79,1.35,2.75,2.92-.05,1.56-1.37,2.8-2.92,2.75-.05,0-6.29-.1-11.64,3.46-5.3,3.53-7.27,8.91-7.29,8.96-.42,1.16-1.51,1.88-2.67,1.88Z"/></g></g></svg>